HIERARCHY
ROOT Hip
{
	OFFSET 0.842066 -2.343263 0.103934
	CHANNELS 6 Xposition Yposition Zposition Xrotation Yrotation Zrotation
	JOINT LowerSpine
	{
		OFFSET 0.012766 0.154723 0.258975
		CHANNELS 6 Xposition Yposition Zposition Xrotation Yrotation Zrotation
		JOINT MiddleSpine
		{
			OFFSET 0.012376 -0.010875 0.236462
			CHANNELS 3 Xrotation Yrotation Zrotation
			JOINT Chest
			{
				OFFSET 0.014968 0.059011 0.292532
				CHANNELS 3 Xrotation Yrotation Zrotation
				JOINT Neck
				{
					OFFSET 0.034301 0.013075 0.659315
					CHANNELS 6 Xposition Yposition Zposition Xrotation Yrotation Zrotation
					JOINT Head
					{
						OFFSET 0.019885 -0.101004 0.372414
						CHANNELS 3 Xrotation Yrotation Zrotation
						End Site
						{
							OFFSET 0.002794 -0.001540 0.053472
						}
					}
				}
				JOINT LClavicle
				{
					OFFSET 0.094004 -0.195483 0.633325
					CHANNELS 6 Xposition Yposition Zposition Xrotation Yrotation Zrotation
					JOINT LShoulder
					{
						OFFSET 0.354037 0.149628 0.072900
						CHANNELS 3 Xrotation Yrotation Zrotation
						JOINT LForearm
						{
							OFFSET 0.825856 0.011069 -0.045986
							CHANNELS 3 Xrotation Yrotation Zrotation
							JOINT LHand
							{
								OFFSET 0.689179 0.007391 -0.033919
								CHANNELS 3 Xrotation Yrotation Zrotation
								JOINT LFinger1
								{
									OFFSET 0.268645 -0.072992 0.009499
									CHANNELS 6 Xposition Yposition Zposition Xrotation Yrotation Zrotation
									JOINT LFinger11
									{
										OFFSET 0.098714 -0.017181 -0.029552
										CHANNELS 3 Xrotation Yrotation Zrotation
										JOINT LFinger12
										{
											OFFSET 0.067389 -0.011733 -0.020179
											CHANNELS 3 Xrotation Yrotation Zrotation
											End Site
											{
												OFFSET 0.049901 -0.008003 -0.017753
											}
										}
									}
								}
								JOINT LFinger2
								{
									OFFSET 0.272494 -0.005157 0.012850
									CHANNELS 6 Xposition Yposition Zposition Xrotation Yrotation Zrotation
									JOINT LFinger21
									{
										OFFSET 0.123532 0.001315 -0.006094
										CHANNELS 3 Xrotation Yrotation Zrotation
										JOINT LFinger22
										{
											OFFSET 0.068476 0.000741 -0.003359
											CHANNELS 3 Xrotation Yrotation Zrotation
											End Site
											{
												OFFSET 0.053164 0.000177 -0.006549
											}
										}
									}
								}
								JOINT LFinger3
								{
									OFFSET 0.257532 0.062091 0.004562
									CHANNELS 6 Xposition Yposition Zposition Xrotation Yrotation Zrotation
									JOINT LFinger31
									{
										OFFSET 0.111753 0.007552 -0.011521
										CHANNELS 3 Xrotation Yrotation Zrotation
										JOINT LFinger32
										{
											OFFSET 0.063683 0.004316 -0.006545
											CHANNELS 3 Xrotation Yrotation Zrotation
											End Site
											{
												OFFSET 0.052684 0.002754 -0.009287
											}
										}
									}
								}
								JOINT LFinger4
								{
									OFFSET 0.236934 0.106207 -0.030626
									CHANNELS 6 Xposition Yposition Zposition Xrotation Yrotation Zrotation
									JOINT LFinger41
									{
										OFFSET 0.068100 0.019367 -0.017987
										CHANNELS 3 Xrotation Yrotation Zrotation
										JOINT LFinger42
										{
											OFFSET 0.049939 0.014210 -0.013174
											CHANNELS 3 Xrotation Yrotation Zrotation
											End Site
											{
												OFFSET 0.049587 0.011795 -0.016473
											}
										}
									}
								}
								JOINT LFinger0
								{
									OFFSET 0.053270 -0.041725 -0.044662
									CHANNELS 6 Xposition Yposition Zposition Xrotation Yrotation Zrotation
									JOINT LFinger01
									{
										OFFSET 0.101473 -0.077208 -0.039077
										CHANNELS 3 Xrotation Yrotation Zrotation
										JOINT LFinger02
										{
											OFFSET 0.066704 -0.048571 -0.027727
											CHANNELS 3 Xrotation Yrotation Zrotation
											End Site
											{
												OFFSET 0.041835 -0.028928 -0.016804
											}
										}
									}
								}
							}
						}
					}
				}
				JOINT RClavicle
				{
					OFFSET -0.025812 -0.196047 0.639570
					CHANNELS 6 Xposition Yposition Zposition Xrotation Yrotation Zrotation
					JOINT RShoulder
					{
						OFFSET -0.345996 0.146345 0.109402
						CHANNELS 3 Xrotation Yrotation Zrotation
						JOINT RForearm
						{
							OFFSET -0.826230 0.003261 0.040119
							CHANNELS 3 Xrotation Yrotation Zrotation
							JOINT RHand
							{
								OFFSET -0.689010 0.000878 0.037911
								CHANNELS 3 Xrotation Yrotation Zrotation
								JOINT RFinger1
								{
									OFFSET -0.265502 -0.075517 0.037342
									CHANNELS 6 Xposition Yposition Zposition Xrotation Yrotation Zrotation
									JOINT RFinger11
									{
										OFFSET -0.101084 -0.018124 -0.019139
										CHANNELS 3 Xrotation Yrotation Zrotation
										JOINT RFinger12
										{
											OFFSET -0.069008 -0.012377 -0.013073
											CHANNELS 3 Xrotation Yrotation Zrotation
											End Site
											{
												OFFSET -0.051399 -0.008482 -0.012473
											}
										}
									}
								}
								JOINT RFinger2
								{
									OFFSET -0.269622 -0.007719 0.041108
									CHANNELS 6 Xposition Yposition Zposition Xrotation Yrotation Zrotation
									JOINT RFinger21
									{
										OFFSET -0.123507 0.000148 0.006781
										CHANNELS 3 Xrotation Yrotation Zrotation
										JOINT RFinger22
										{
											OFFSET -0.068458 0.000097 0.003778
											CHANNELS 3 Xrotation Yrotation Zrotation
											End Site
											{
												OFFSET -0.053556 -0.000327 -0.000987
											}
										}
									}
								}
								JOINT RFinger3
								{
									OFFSET -0.256236 0.059663 0.031339
									CHANNELS 6 Xposition Yposition Zposition Xrotation Yrotation Zrotation
									JOINT RFinger31
									{
										OFFSET -0.112411 0.006492 0.000163
										CHANNELS 3 Xrotation Yrotation Zrotation
										JOINT RFinger32
										{
											OFFSET -0.064057 0.003713 0.000113
											CHANNELS 3 Xrotation Yrotation Zrotation
											End Site
											{
												OFFSET -0.053387 0.002254 -0.003758
											}
										}
									}
								}
								JOINT RFinger4
								{
									OFFSET -0.239825 0.103953 -0.005778
									CHANNELS 6 Xposition Yposition Zposition Xrotation Yrotation Zrotation
									JOINT RFinger41
									{
										OFFSET -0.069780 0.018715 -0.010798
										CHANNELS 3 Xrotation Yrotation Zrotation
										JOINT RFinger42
										{
											OFFSET -0.051170 0.013733 -0.007902
											CHANNELS 3 Xrotation Yrotation Zrotation
											End Site
											{
												OFFSET -0.051140 0.011318 -0.011223
											}
										}
									}
								}
								JOINT RFinger0
								{
									OFFSET -0.057229 -0.042244 -0.038900
									CHANNELS 6 Xposition Yposition Zposition Xrotation Yrotation Zrotation
									JOINT RFinger01
									{
										OFFSET -0.104253 -0.078183 -0.028360
										CHANNELS 3 Xrotation Yrotation Zrotation
										JOINT RFinger02
										{
											OFFSET -0.068762 -0.049211 -0.020663
											CHANNELS 3 Xrotation Yrotation Zrotation
											End Site
											{
												OFFSET -0.043080 -0.029330 -0.012378
											}
										}
									}
								}
							}
						}
					}
				}
			}
		}
	}
	JOINT RThigh
	{
		OFFSET -0.300368 0.023843 0.133067
		CHANNELS 6 Xposition Yposition Zposition Xrotation Yrotation Zrotation
		JOINT RShin
		{
			OFFSET -0.085008 -0.001418 -1.204438
			CHANNELS 3 Xrotation Yrotation Zrotation
			JOINT RFoot
			{
				OFFSET -0.061694 -0.001290 -1.183823
				CHANNELS 3 Xrotation Yrotation Zrotation
				JOINT RToe
				{
					OFFSET -0.005481 -0.272590 -0.129884
					CHANNELS 3 Xrotation Yrotation Zrotation
					End Site
					{
						OFFSET 0.000256 -0.053566 0.000045
					}
				}
			}
		}
	}
	JOINT LThigh
	{
		OFFSET 0.312330 0.026741 0.101143
		CHANNELS 6 Xposition Yposition Zposition Xrotation Yrotation Zrotation
		JOINT LShin
		{
			OFFSET -0.040647 -0.001209 -1.206759
			CHANNELS 3 Xrotation Yrotation Zrotation
			JOINT LFoot
			{
				OFFSET -0.061694 -0.001290 -1.183823
				CHANNELS 3 Xrotation Yrotation Zrotation
				JOINT LToe
				{
					OFFSET -0.005481 -0.272592 -0.129884
					CHANNELS 3 Xrotation Yrotation Zrotation
					End Site
					{
						OFFSET 0.000256 -0.053566 0.000045
					}
				}
			}
		}
	}
}
MOTION
Frames: 4
Frame Time: 0.041667
0.706214 -3.502134 2.966723 153.069539 -25.578107 -14.371497 0.012766 0.154723 0.258975 -0.000002 0.000005 -0.000000 0.205080 6.125898 2.284380 0.101526 19.726712 7.142246 0.034301 0.013075 0.659315 -46.572560 -3.747690 0.004044 -8.120322 -0.883526 0.339142 0.094004 -0.195483 0.633325 -5.013838 -17.705172 0.397410 -55.381096 -32.320800 -74.915673 0.109906 0.004403 2.096631 -89.327044 -82.907152 -50.431122 0.268645 -0.072992 0.009499 -0.000003 -0.000003 -0.000004 0.000001 0.000003 0.000000 -0.000001 0.000001 0.000000 0.272495 -0.005157 0.012850 -0.000004 -0.000000 -0.000000 -0.000000 -0.000001 0.000002 -0.000001 0.000000 0.000004 0.257533 0.062091 0.004562 -0.000006 -0.000009 -0.000006 0.000000 -0.000001 -0.000000 -0.000002 0.000012 0.000007 0.236934 0.106207 -0.030626 -0.000008 -0.000004 -0.000005 0.000006 -0.000004 0.000007 0.000003 0.000002 -0.000004 0.053271 -0.041725 -0.044661 -0.000020 -0.000010 -0.000006 -0.000005 -0.000001 -0.000007 -0.000005 0.000002 -0.000003 -0.025812 -0.196047 0.639569 0.040867 25.325778 -5.065283 -26.256260 36.061999 40.998296 -0.016572 -0.000319 -0.317868 -128.619101 53.788392 71.008238 -0.265502 -0.075517 0.037342 -0.403735 0.018920 -7.759972 0.000002 -0.000000 -0.000010 -0.000007 0.000005 -0.000001 -0.269622 -0.007720 0.041109 0.000004 0.000001 0.000007 -0.000001 -0.000003 0.000004 -0.000003 -0.000000 -0.000001 -0.256236 0.059663 0.031339 0.000002 0.000006 0.000006 0.000003 -0.000002 -0.000001 -0.000001 0.000009 -0.000001 -0.239824 0.103953 -0.005778 0.000009 -0.000000 0.000008 0.000001 0.000004 0.000013 -0.000000 -0.000000 0.000001 -0.057229 -0.042244 -0.038900 0.000003 0.000009 0.000004 -0.000016 -0.000009 0.000012 0.000006 -0.000004 0.000015 -0.251523 -0.022669 0.182069 -5.530791 19.683118 -1.685252 2.504751 0.008978 -0.130762 10.380491 -1.457702 3.391152 -0.000014 0.000017 0.000003 0.276518 -0.161095 0.075268 -134.188260 -12.518685 25.745561 128.000873 -4.611079 -2.791419 2.067306 -0.332299 0.630245 -0.000001 -0.000008 -0.000010 
0.706214 -3.502134 2.966723 153.069539 -25.578107 -14.371497 0.012766 0.154723 0.258975 -0.000002 0.000005 -0.000000 0.205080 6.125898 2.284380 0.101526 19.726712 7.142246 0.034301 0.013075 0.659315 -46.572560 -3.747690 0.004044 -8.120322 -0.883526 0.339142 0.094004 -0.195483 0.633325 -5.013838 -17.705172 0.397410 -55.381096 -32.320800 -74.915673 0.109906 0.004403 2.096631 -89.327044 -82.907152 -50.431122 0.268645 -0.072992 0.009499 -0.000003 -0.000003 -0.000004 0.000001 0.000003 0.000000 -0.000001 0.000001 0.000000 0.272495 -0.005157 0.012850 -0.000004 -0.000000 -0.000000 -0.000000 -0.000001 0.000002 -0.000001 0.000000 0.000004 0.257533 0.062091 0.004562 -0.000006 -0.000009 -0.000006 0.000000 -0.000001 -0.000000 -0.000002 0.000012 0.000007 0.236934 0.106207 -0.030626 -0.000008 -0.000004 -0.000005 0.000006 -0.000004 0.000007 0.000003 0.000002 -0.000004 0.053271 -0.041725 -0.044661 -0.000020 -0.000010 -0.000006 -0.000005 -0.000001 -0.000007 -0.000005 0.000002 -0.000003 -0.025812 -0.196047 0.639569 0.040867 25.325778 -5.065283 -26.256260 36.061999 40.998296 -0.016572 -0.000319 -0.317868 -128.619101 53.788392 71.008238 -0.265502 -0.075517 0.037342 -0.403735 0.018920 -7.759972 0.000002 -0.000000 -0.000010 -0.000007 0.000005 -0.000001 -0.269622 -0.007720 0.041109 0.000004 0.000001 0.000007 -0.000001 -0.000003 0.000004 -0.000003 -0.000000 -0.000001 -0.256236 0.059663 0.031339 0.000002 0.000006 0.000006 0.000003 -0.000002 -0.000001 -0.000001 0.000009 -0.000001 -0.239824 0.103953 -0.005778 0.000009 -0.000000 0.000008 0.000001 0.000004 0.000013 -0.000000 -0.000000 0.000001 -0.057229 -0.042244 -0.038900 0.000003 0.000009 0.000004 -0.000016 -0.000009 0.000012 0.000006 -0.000004 0.000015 -0.251523 -0.022669 0.182069 -5.530791 19.683118 -1.685252 2.504751 0.008978 -0.130762 10.380491 -1.457702 3.391152 -0.000014 0.000017 0.000003 0.276518 -0.161095 0.075268 -134.188260 -12.518685 25.745561 128.000873 -4.611079 -2.791419 2.067306 -0.332299 0.630245 -0.000001 -0.000008 -0.000010 
0.702625 -3.494941 2.961938 151.998415 -25.637638 -14.867807 0.012766 0.154723 0.258974 -0.000002 0.000006 0.000002 0.178205 6.189819 2.314136 1.108671 20.532305 6.703732 0.034301 0.013076 0.659316 -46.589776 -3.802003 -0.038781 -8.114489 -0.899682 0.336130 0.094004 -0.195483 0.633325 -3.641565 -21.193387 0.184769 -53.306003 -34.209979 -70.746546 0.136523 0.006578 2.646924 -98.925393 -81.224384 -53.693934 0.268644 -0.072992 0.009499 -0.000004 -0.000002 -0.000004 0.000002 0.000005 -0.000001 -0.000001 0.000001 0.000001 0.272494 -0.005157 0.012850 -0.000006 -0.000001 -0.000001 -0.000001 -0.000002 0.000002 -0.000003 -0.000000 0.000005 0.257532 0.062091 0.004562 -0.000007 -0.000007 -0.000005 0.000002 -0.000001 -0.000000 -0.000002 0.000010 0.000006 0.236933 0.106207 -0.030627 -0.000010 -0.000004 -0.000004 0.000000 -0.000001 0.000013 0.000002 0.000004 -0.000005 0.053270 -0.041725 -0.044661 -0.000023 -0.000007 -0.000006 -0.000010 -0.000002 -0.000008 -0.000009 0.000002 -0.000006 -0.025812 -0.196046 0.639569 0.032355 25.323509 -4.815199 -25.576786 35.700186 40.366275 -0.024142 -0.000222 -0.466342 -129.044868 53.537844 71.534443 -0.265502 -0.075517 0.037342 -0.403741 0.018916 -7.759967 0.000002 -0.000001 -0.000011 -0.000008 0.000002 -0.000000 -0.269622 -0.007720 0.041108 0.000001 0.000001 0.000006 -0.000001 -0.000003 0.000005 0.000000 -0.000002 -0.000001 -0.256236 0.059663 0.031339 -0.000003 0.000009 0.000004 -0.000002 -0.000002 -0.000002 -0.000001 0.000008 -0.000000 -0.239825 0.103953 -0.005778 0.000004 -0.000000 0.000009 0.000003 0.000003 0.000014 0.000001 0.000000 0.000003 -0.057228 -0.042244 -0.038900 -0.000002 0.000010 -0.000001 -0.000016 -0.000006 0.000003 -0.000002 -0.000002 0.000008 -0.251523 -0.022668 0.182068 -5.497799 19.674329 -1.867793 2.926279 0.009928 -0.152801 14.878879 -0.878072 2.039914 -0.000012 0.000017 0.000002 0.276519 -0.161095 0.075267 -134.073704 -13.228468 22.724835 115.884855 -4.046988 -3.076698 1.007575 -0.473391 0.968993 -0.000001 -0.000009 -0.000005 
0.696707 -3.484276 2.957491 150.749255 -25.534138 -15.270951 0.012766 0.154723 0.258974 0.000000 0.000005 0.000001 0.157925 6.257562 2.350820 2.480606 21.298106 5.999496 0.034301 0.013075 0.659315 -46.597384 -3.856060 -0.081675 -8.126681 -0.903609 0.335908 0.094004 -0.195483 0.633324 -2.164495 -25.107077 0.054443 -50.619061 -36.143992 -65.646553 0.154860 0.007482 3.040872 -106.918436 -79.686000 -56.011530 0.268645 -0.072992 0.009499 -0.000005 -0.000006 -0.000005 0.000001 0.000005 -0.000001 -0.000001 -0.000001 -0.000002 0.272494 -0.005157 0.012850 -0.000006 -0.000001 -0.000001 -0.000001 -0.000001 0.000002 -0.000001 -0.000000 0.000004 0.257532 0.062091 0.004562 -0.000006 -0.000008 -0.000005 -0.000001 -0.000000 0.000000 0.000003 0.000010 0.000009 0.236934 0.106207 -0.030627 -0.000006 -0.000005 -0.000004 0.000005 0.000000 0.000007 -0.000001 0.000003 -0.000003 0.053270 -0.041725 -0.044661 -0.000018 -0.000009 -0.000006 -0.000015 -0.000003 -0.000003 -0.000006 -0.000003 -0.000001 -0.025812 -0.196046 0.639570 0.022712 25.323121 -4.526725 -24.901154 35.309571 39.669216 -0.046269 -0.000629 -0.896894 -129.268474 53.403801 71.811448 -0.265501 -0.075517 0.037342 -0.403736 0.018920 -7.759970 0.000002 -0.000000 -0.000010 -0.000008 0.000006 -0.000000 -0.269621 -0.007720 0.041108 0.000002 0.000003 0.000007 -0.000001 -0.000001 0.000004 -0.000001 0.000002 -0.000003 -0.256236 0.059663 0.031340 -0.000000 0.000009 0.000005 0.000001 -0.000000 -0.000002 -0.000000 0.000009 0.000000 -0.239824 0.103954 -0.005778 0.000006 0.000002 0.000010 0.000001 0.000002 0.000011 -0.000000 0.000003 0.000001 -0.057228 -0.042244 -0.038900 0.000001 0.000015 0.000001 -0.000014 -0.000004 0.000002 -0.000000 -0.000006 0.000011 -0.251524 -0.022669 0.182069 -5.820986 19.351017 -1.982946 3.730882 0.011288 -0.194888 23.240776 -0.466760 0.072411 -0.000014 0.000017 0.000004 0.276518 -0.161095 0.075268 -133.671187 -13.225242 18.387315 100.362164 -3.258295 -3.258306 0.642671 -0.550303 1.142731 0.000003 -0.000007 -0.000008 
